<?xml version="1.0" standalone="no"?>
<!DOCTYPE svg PUBLIC "-//W3C//DTD SVG 20010904//EN"
 "http://www.w3.org/TR/2001/REC-SVG-20010904/DTD/svg10.dtd">
<svg version="1.0" xmlns="http://www.w3.org/2000/svg"
 width="512.000000pt" height="512.000000pt" viewBox="0 0 512.000000 512.000000"
 preserveAspectRatio="xMidYMid meet">
<metadata>
Created by potrace 1.11, written by Peter Selinger 2001-2013
</metadata>
<g transform="translate(0.000000,512.000000) scale(0.100000,-0.100000)"
fill="#000000" stroke="none">
<path d="M2470 5068 c-47 -28 -105 -61 -130 -75 -25 -14 -117 -67 -205 -118
-88 -51 -263 -152 -390 -225 -126 -73 -241 -139 -255 -148 -14 -9 -27 -17 -30
-17 -3 0 -16 -8 -30 -17 -14 -8 -160 -93 -325 -188 -165 -96 -343 -198 -395
-228 -52 -30 -108 -63 -125 -72 -16 -10 -70 -41 -118 -69 -49 -28 -91 -51 -94
-51 -29 0 -30 -29 -30 -1302 l0 -1278 56 -33 c43 -26 55 -39 54 -55 -2 -19 2
-22 38 -22 32 0 63 -12 130 -51 49 -28 89 -52 89 -54 0 -2 -70 -4 -157 -4 -86
-1 -159 -3 -162 -7 -3 -3 -6 -82 -6 -175 l0 -169 471 0 472 0 64 -37 c34 -20
78 -44 97 -55 19 -10 39 -22 45 -28 7 -7 -205 -10 -650 -10 l-659 0 1 -167 c1
-93 2 -171 3 -175 0 -5 436 -8 967 -8 l966 0 106 -62 c59 -33 123 -70 142 -81
19 -10 40 -23 45 -27 6 -4 32 -19 58 -34 l48 -26 97 56 c53 31 117 68 142 82
25 14 56 32 70 41 85 55 13 51 1060 54 l965 2 0 170 0 170 -662 5 -663 5 111
63 111 62 472 0 472 0 -1 173 0 172 -169 3 -170 2 96 55 c73 42 106 55 137 55
36 0 40 3 38 22 -1 16 11 29 53 54 l55 34 1 1280 1 1280 -41 24 c-23 13 -57
33 -76 44 -82 46 -336 193 -350 202 -8 5 -31 18 -50 29 -19 11 -289 166 -599
345 -310 179 -567 326 -572 326 -5 0 -9 5 -9 10 0 6 -4 10 -9 10 -5 0 -116 62
-248 138 -131 76 -245 141 -253 144 -9 3 -51 -15 -100 -44z"/>
</g>
</svg>
